<svg id="Layer_1" enable-background="new 0 0 511.99 511.99" height="512" viewBox="0 0 511.99 511.99" width="512" xmlns="http://www.w3.org/2000/svg"><g><g><g><path d="m255.995 7.5-227.886 113.848 227.886 113.849 227.885-113.849z" fill="#7affd5"/></g><path d="m255.995 234.836v269.664l227.885-113.849v-269.303z" fill="#1ee3a5"/><path d="m433.62 146.378v269.383l50.26-25.11v-269.303z" fill="#1cd198"/><path d="m28.109 121.348 227.886 113.488v269.664l-227.886-113.849z" fill="#15aa78"/></g><path d="m487.232 114.639-227.886-113.849c-2.109-1.054-4.593-1.054-6.704 0l-47.726 23.843c-8.395 4.196-2.075 17.804 6.704 13.419l44.374-22.168 211.104 105.465-211.103 105.464-211.104-105.465 131.362-65.626c8.396-4.196 2.074-17.805-6.704-13.419l-144.792 72.336c-2.509 1.251-4.148 3.906-4.148 6.709v269.303c0 2.842 1.606 5.439 4.148 6.709l227.886 113.849c2.085 1.041 4.619 1.04 6.704 0l45.408-22.686c8.396-4.195 2.076-17.803-6.703-13.419l-34.557 17.264v-252.534l212.886-106.355v252.535l-141.924 70.903c-8.42 4.207-2.017 17.775 6.703 13.419l146.072-72.976c2.542-1.27 4.148-3.868 4.148-6.709v-269.303c.001-2.973-1.932-5.601-4.148-6.709zm-451.623 271.375v-252.535l212.886 106.355v252.535z"/></g></svg>