<svg id="Capa_1" enable-background="new 0 0 512 512" height="512" viewBox="0 0 512 512" width="512" xmlns="http://www.w3.org/2000/svg"><g><path d="m243.271 311.06-6.211-6.211c-22.471-22.471-52.354-34.849-84.126-34.849h-1.934v-15c0-24.814-20.186-45-45-45-8.291 0-15 6.709-15 15s6.709 15 15 15c8.276 0 15 6.724 15 15v15h-7.925c-17.139 0-32.563-9.536-40.239-24.873-10.825-21.665-33.607-35.127-57.836-35.127-8.291 0-15 6.709-15 15s6.709 15 15 15c12.788 0 25.287 7.104 31 18.545 8.093 16.166 21.645 27.825 37.511 34.68-15.126 22.59-40.783 36.775-68.511 36.775-8.291 0-15 6.709-15 15s6.709 15 15 15c41.96 0 80.649-22.985 100.097-60h37.837c23.423 0 46.348 9.492 62.915 26.06l6.211 6.211c5.859 5.859 15.351 5.86 21.211 0 5.859-5.86 5.859-15.352 0-21.211z" fill="#9b786f"/><path d="m259.94 177.729-19.702-19.702c-24.521-24.521-57.129-38.027-91.816-38.027-15.117 0-27.422-12.305-27.422-27.422 0-7.222 2.93-14.297 8.027-19.395l17.578-17.578c5.859-5.859 5.859-15.352 0-21.211s-15.352-5.859-21.211 0l-17.578 17.578c-10.839 10.841-16.816 25.269-16.816 40.606 0 9.981 2.789 19.235 7.288 27.422h-22.288c-8.276 0-15-6.724-15-15 0-8.291-6.709-15-15-15s-15 6.709-15 15c0 24.814 20.186 45 45 45h72.422c26.675 0 51.753 10.386 70.605 29.238l19.702 19.702c5.859 5.859 15.351 5.86 21.211 0 5.86-5.859 5.86-15.351 0-21.211z" fill="#9b786f"/><path d="m455.395 184.395-11.367 11.367c-9.185 9.184-21.402 14.238-34.395 14.238-16.122 0-30.659-7.826-39.595-20.407.456-.119.861-.366 1.318-.482 29.239-7.295 49.644-33.442 49.644-63.574 0-19.599 15.938-35.537 35.537-35.537h9.463c8.291 0 15-6.709 15-15s-6.709-15-15-15h-9.463c-36.138 0-65.537 29.399-65.537 65.537 0 16.333-11.074 30.513-26.924 34.482-45.439 11.367-84.404 41.44-106.89 82.515-3.984 7.266-1.318 16.377 5.947 20.361 7.14 3.936 16.34 1.404 20.361-5.947 13.336-24.355 33.873-43.751 58.213-56.321 13.812 24 39.28 39.373 67.925 39.373 21.006 0 40.752-8.174 55.605-23.027l11.367-11.367c5.859-5.859 5.859-15.352 0-21.211s-15.35-5.86-21.209 0z" fill="#704c55"/><path d="m507.605 274.395c-5.859-5.859-15.352-5.859-21.211 0-2.296 1.157-25.419 25.965-59.041 25.953-10.364-.004-21.821-2.366-34.127-8.506l-25.679-12.847c-29.58-14.794-74.055-10.713-101.001 18.677-5.596 6.108-5.186 15.601.923 21.196 6.123 5.581 15.601 5.156 21.196-.923 11.14-12.177 27.755-17.864 44.015-17.091 7.814 50.185 51.313 89.146 103.32 89.146 8.291 0 15-6.709 15-15s-6.709-15-15-15c-31.54 0-58.705-20.101-69.67-48.067l13.478 6.744c14.839 7.412 31.421 11.323 47.974 11.323 49.829 0 76.823-32.354 79.823-34.395 5.86-5.859 5.86-15.351 0-21.21z" fill="#704c55"/><g><path d="m256 113.384v-76.768c-9.465 10.488-15 24.228-15 38.384s5.535 27.896 15 38.384z" fill="none"/><path d="m346 30c-24.814 0-45 20.186-45 45 0 22.883-17.228 41.622-39.359 44.431-1.414-1.509-4.999-5.334-5.641-6.046-9.465-10.488-15-24.229-15-38.384 0-15.665 7.112-30.901 16.816-40.605l8.789-8.789c5.859-5.859 5.859-15.352 0-21.211-2.929-2.931-6.767-4.396-10.605-4.396s-7.676 1.465-10.605 4.395l-8.789 8.789c-16.275 16.274-25.606 38.803-25.606 61.816s9.331 45.542 25.605 61.816l3.602 3.602-38.509 310.073c-2.256 17.959-17.593 31.509-35.698 31.509l30 15h60 60l30-15c-18.105 0-33.442-13.55-35.698-31.509l-37.566-302.529c33.296-7.648 58.264-37.381 58.264-72.962 0-8.276 6.724-15 15-15 8.291 0 15-6.709 15-15s-6.709-15-15-15z" fill="#9b786f"/><path d="m346 482c-18.105 0-33.442-13.55-35.698-31.509l-37.566-302.529c33.296-7.648 58.264-37.381 58.264-72.962 0-8.276 6.724-15 15-15 8.291 0 15-6.709 15-15s-6.709-15-15-15c-24.814 0-45 20.186-45 45 0 22.883-17.228 41.622-39.359 44.431-1.414-1.508-4.999-5.334-5.641-6.046v383.615h60z" fill="#704c55"/></g><path d="m376 482h-120-120c-8.291 0-15 6.709-15 15s6.709 15 15 15h120 120c8.291 0 15-6.709 15-15s-6.709-15-15-15z" fill="#97de3d"/><path d="m391 497c0-8.291-6.709-15-15-15h-120v30h120c8.291 0 15-6.709 15-15z" fill="#59c36a"/></g></svg>